<svg width="201" height="200" version="1.1" xmlns="http://www.w3.org/2000/svg" desc="Created with imagetracer.js version 1.2.6" ><path fill="rgb(0,0,0)" stroke="rgb(0,0,0)" stroke-width="1" opacity="0" d="M 0 0 L 201 0 L 201 200 L 0 200 L 0 0 Z M 46 11 L 44 13 L 44 48 L 13 68 L 9 72 L 9 184 L 20 184 L 21 185 Q 25 186 27 184 Q 33 185 33 184 L 33 72 L 66 49 L 69 49 L 96 64 L 96 184 L 97 184 L 116 184 L 117 100 L 126 105 L 127 106 L 127 184 L 153 184 L 153 113 L 154 112 L 154 104 L 141 95 L 119 85 L 116 83 L 116 45 L 46 11 Z M 127 52 L 127 79 L 161 95 L 162 97 L 162 184 L 168 185 L 171 184 L 178 184 L 178 184 L 178 78 L 176 75 L 130 52 L 127 52 Z M 63 61 L 45 72 L 44 75 L 44 183 L 46 184 L 54 184 L 55 185 L 64 184 L 64 69 Q 66 67 65 63 L 63 61 Z " /><path fill="rgb(220,253,253)" stroke="rgb(220,253,253)" stroke-width="1" opacity="0.4549019607843137" d="M 45.5 11 L 116 45 L 116 82.5 L 118.5 85 L 140.5 95 L 154 103.5 L 154 111.5 L 153 112.5 L 153 184 L 127 184 L 127 105.5 L 125.5 105 L 116.5 100 L 116 184 L 96.5 184 L 96 183.5 L 96 63.5 L 68.5 49 L 65.5 49 L 33 71.5 L 33 183.5 Q 32.8 184.8 26.5 184 Q 25.3 186.2 20.5 185 L 19.5 184 L 9 184 L 9 71.5 L 12.5 68 L 44 47.5 L 44 12.5 L 45.5 11 Z M 46 13 L 46 48 L 14 69 L 11 72 L 11 183 L 32 183 L 32 183 L 32 71 L 67 47 L 96 61 L 97 63 L 97 183 L 115 183 L 115 183 L 115 99 L 127 103 L 128 105 L 128 183 L 152 183 L 152 183 L 152 104 L 117 85 L 115 85 L 115 48 L 113 45 L 49 13 L 46 13 Z " /><path fill="rgb(220,253,253)" stroke="rgb(220,253,253)" stroke-width="1" opacity="0.4549019607843137" d="M 127 52 L 129.5 52 L 175.5 75 L 178 77.5 L 178 183.5 L 177.5 184 L 170.5 184 L 167.5 185 L 162 184 L 162 96.5 L 160.5 95 L 127 79 L 127 52 Z M 128 54 L 128 77 L 131 79 L 163 96 L 163 183 L 164 183 L 176 183 Q 178 182 176 181 L 176 81 L 177 80 L 176 78 L 131 54 L 128 54 Z " /><path fill="rgb(220,253,253)" stroke="rgb(220,253,253)" stroke-width="1" opacity="0.4549019607843137" d="M 62.5 61 L 65 62.5 Q 66.3 67.3 64 68.5 L 64 184 L 54.5 185 L 53.5 184 L 45.5 184 L 44 182.5 L 44 74.5 L 45 72 L 62.5 61 Z M 62 63 L 46 73 L 46 183 L 47 183 L 63 183 L 63 64 L 62 63 Z " /><path fill="rgb(253,254,254)" stroke="rgb(253,254,254)" stroke-width="1" opacity="0.996078431372549" d="M 46 13 L 48.5 13 L 112.5 45 L 115 47.5 L 115 84.5 L 116.5 85 L 152 103.5 L 152 182.5 L 151.5 183 L 128 183 L 128 104.5 L 126.5 103 L 115 99 L 115 182.5 L 114.5 183 L 97 183 L 97 62.5 L 95.5 61 L 66.5 47 L 32 70.5 L 32 182.5 L 31.5 183 L 11 183 L 11 71.5 L 13.5 69 L 46 47.5 L 46 13 Z " /><path fill="rgb(253,254,254)" stroke="rgb(253,254,254)" stroke-width="1" opacity="0.996078431372549" d="M 128 54 L 130.5 54 L 176 77.5 L 177 79.5 L 176 80.5 L 176 180.5 Q 178.3 181.8 175.5 183 L 163.5 183 L 163 182.5 L 163 95.5 L 130.5 79 L 128 76.5 L 128 54 Z " /><path fill="rgb(253,254,254)" stroke="rgb(253,254,254)" stroke-width="1" opacity="0.996078431372549" d="M 61.5 63 L 63 63.5 L 63 183 L 46.5 183 L 46 182.5 L 46 73 L 61.5 63 Z " /></svg>